<?xml version="1.0" encoding="utf-8"?>
<!-- Generator: Adobe Illustrator 28.0.0, SVG Export Plug-In . SVG Version: 6.00 Build 0)  -->
<svg version="1.1" id="Layer_1" xmlns="http://www.w3.org/2000/svg" xmlns:xlink="http://www.w3.org/1999/xlink" x="0px" y="0px"
	 width="840.91px" height="86px" viewBox="0 0 840.91 86" enable-background="new 0 0 840.91 86" xml:space="preserve">
<g>
	<g>
		<path fill="none" stroke="#483821" stroke-miterlimit="10" d="M316.32,72.9V13.05h18.09l10.86,40.83l10.74-40.83h18.13V72.9
			h-11.23V25.79L351.03,72.9h-11.64l-11.84-47.11V72.9H316.32z"/>
		<path fill="none" stroke="#483821" stroke-miterlimit="10" d="M386.14,72.9V13.05h19.39c7.35,0,12.14,0.3,14.37,0.9
			c3.43,0.9,6.3,2.85,8.62,5.86c2.31,3.01,3.47,6.89,3.47,11.66c0,3.67-0.67,6.76-2,9.27c-1.33,2.5-3.03,4.47-5.08,5.9
			c-2.05,1.43-4.14,2.37-6.27,2.84c-2.89,0.57-7.06,0.86-12.53,0.86h-7.88V72.9H386.14z M398.22,23.18v16.98h6.61
			c4.76,0,7.95-0.31,9.55-0.94c1.61-0.63,2.86-1.61,3.78-2.94c0.91-1.33,1.37-2.88,1.37-4.65c0-2.18-0.64-3.97-1.92-5.39
			c-1.28-1.41-2.9-2.3-4.86-2.65c-1.44-0.27-4.34-0.41-8.69-0.41H398.22z"/>
		<path fill="none" stroke="#483821" stroke-miterlimit="10" d="M480.2,50.9l11.72,3.72c-1.8,6.53-4.78,11.38-8.96,14.55
			c-4.18,3.17-9.48,4.76-15.9,4.76c-7.95,0-14.48-2.72-19.6-8.14c-5.12-5.43-7.68-12.85-7.68-22.27c0-9.96,2.57-17.7,7.72-23.21
			c5.14-5.51,11.91-8.27,20.29-8.27c7.32,0,13.27,2.16,17.84,6.49c2.72,2.56,4.76,6.23,6.12,11.02l-11.96,2.86
			c-0.71-3.1-2.18-5.55-4.43-7.35c-2.24-1.8-4.97-2.69-8.19-2.69c-4.44,0-8.04,1.59-10.8,4.78c-2.76,3.18-4.14,8.34-4.14,15.47
			c0,7.57,1.36,12.96,4.08,16.17c2.72,3.21,6.26,4.82,10.61,4.82c3.21,0,5.97-1.02,8.29-3.06C477.53,58.49,479.19,55.28,480.2,50.9z
			"/>
		<path fill="#483821" d="M523.23,59.06l11.1-1.22c0.27,2.26,0.98,3.93,2.12,5.02c1.14,1.09,2.65,1.63,4.53,1.63
			c2.37,0,4.38-1.09,6.04-3.27c1.66-2.18,2.72-6.7,3.19-13.55c-2.89,3.35-6.49,5.02-10.82,5.02c-4.71,0-8.77-1.82-12.19-5.45
			c-3.42-3.63-5.12-8.36-5.12-14.19c0-6.07,1.8-10.96,5.41-14.68c3.61-3.71,8.2-5.57,13.78-5.57c6.07,0,11.05,2.35,14.94,7.04
			c3.89,4.69,5.84,12.42,5.84,23.17c0,10.94-2.03,18.83-6.08,23.68c-4.06,4.84-9.34,7.27-15.84,7.27c-4.68,0-8.46-1.25-11.35-3.74
			C525.9,67.74,524.05,64.02,523.23,59.06z M549.19,34c0-3.7-0.85-6.57-2.55-8.61c-1.7-2.04-3.67-3.06-5.9-3.06
			c-2.12,0-3.89,0.84-5.29,2.51c-1.4,1.67-2.1,4.42-2.1,8.23c0,3.87,0.76,6.7,2.29,8.51c1.52,1.81,3.43,2.71,5.72,2.71
			c2.2,0,4.06-0.87,5.57-2.61C548.44,39.93,549.19,37.37,549.19,34z"/>
		<path fill="#483821" d="M588.88,12.81c5.8,0,10.33,2.07,13.59,6.21c3.89,4.9,5.84,13.02,5.84,24.37c0,11.32-1.96,19.46-5.88,24.41
			c-3.24,4.08-7.76,6.12-13.55,6.12c-5.82,0-10.52-2.24-14.08-6.72c-3.57-4.48-5.35-12.46-5.35-23.94c0-11.27,1.96-19.38,5.88-24.33
			C578.56,14.85,583.08,12.81,588.88,12.81z M588.88,22.32c-1.39,0-2.63,0.44-3.72,1.33c-1.09,0.88-1.93,2.47-2.53,4.76
			c-0.79,2.97-1.18,7.96-1.18,14.98c0,7.02,0.35,11.85,1.06,14.47c0.71,2.63,1.6,4.38,2.67,5.25c1.08,0.87,2.31,1.31,3.7,1.31
			c1.39,0,2.63-0.44,3.71-1.33c1.09-0.88,1.93-2.47,2.53-4.76c0.79-2.94,1.18-7.92,1.18-14.94c0-7.02-0.35-11.85-1.06-14.47
			c-0.71-2.63-1.6-4.38-2.68-5.27C591.5,22.76,590.27,22.32,588.88,22.32z"/>
		<path fill="#483821" d="M616.23,59.06l11.1-1.22c0.27,2.26,0.98,3.93,2.12,5.02c1.14,1.09,2.65,1.63,4.53,1.63
			c2.37,0,4.38-1.09,6.04-3.27c1.66-2.18,2.72-6.7,3.19-13.55c-2.89,3.35-6.49,5.02-10.82,5.02c-4.71,0-8.77-1.82-12.19-5.45
			c-3.42-3.63-5.12-8.36-5.12-14.19c0-6.07,1.8-10.96,5.41-14.68c3.61-3.71,8.2-5.57,13.78-5.57c6.07,0,11.05,2.35,14.94,7.04
			c3.89,4.69,5.84,12.42,5.84,23.17c0,10.94-2.03,18.83-6.08,23.68c-4.06,4.84-9.34,7.27-15.84,7.27c-4.68,0-8.46-1.25-11.35-3.74
			C618.9,67.74,617.05,64.02,616.23,59.06z M642.2,34c0-3.7-0.85-6.57-2.55-8.61c-1.7-2.04-3.67-3.06-5.9-3.06
			c-2.12,0-3.89,0.84-5.29,2.51c-1.4,1.67-2.1,4.42-2.1,8.23c0,3.87,0.76,6.7,2.29,8.51c1.52,1.81,3.43,2.71,5.72,2.71
			c2.2,0,4.06-0.87,5.57-2.61C641.44,39.93,642.2,37.37,642.2,34z"/>
		<path fill="#483821" d="M681.88,12.81c5.8,0,10.33,2.07,13.59,6.21c3.89,4.9,5.84,13.02,5.84,24.37c0,11.32-1.96,19.46-5.88,24.41
			c-3.24,4.08-7.76,6.12-13.55,6.12c-5.82,0-10.52-2.24-14.08-6.72c-3.57-4.48-5.35-12.46-5.35-23.94c0-11.27,1.96-19.38,5.88-24.33
			C671.56,14.85,676.08,12.81,681.88,12.81z M681.88,22.32c-1.39,0-2.63,0.44-3.72,1.33c-1.09,0.88-1.93,2.47-2.53,4.76
			c-0.79,2.97-1.18,7.96-1.18,14.98c0,7.02,0.35,11.85,1.06,14.47c0.71,2.63,1.6,4.38,2.67,5.25c1.08,0.87,2.31,1.31,3.7,1.31
			c1.39,0,2.63-0.44,3.71-1.33c1.09-0.88,1.93-2.47,2.53-4.76c0.79-2.94,1.18-7.92,1.18-14.94c0-7.02-0.35-11.85-1.06-14.47
			c-0.71-2.63-1.6-4.38-2.68-5.27C684.5,22.76,683.27,22.32,681.88,22.32z"/>
		<path fill="none" stroke="#483821" stroke-miterlimit="10" d="M728.67,72.9l20.45-31.23l-18.53-28.62h14.13l12,19.23l11.76-19.23
			h14l-18.62,29.07l20.45,30.78h-14.58l-13.27-20.7l-13.31,20.7H728.67z"/>
		<path fill="none" stroke="#483821" stroke-miterlimit="10" d="M790.84,72.9V13.54h12.08v49.28h30.05V72.9H790.84z"/>
	</g>
	<g>
		<g>
			<path fill="#D2232A" d="M46.85,43.45c0.36,1.08,1.83,1.61,4.41,1.61v3.12h-19.7v-3.12h4.74c1.04,0,1.56-0.34,1.56-1.02
				c0-0.11-0.05-0.3-0.16-0.59l-2.15-5.81H19.02l-1.99,5.38c-0.07,0.22-0.11,0.43-0.11,0.65c0,0.93,0.79,1.4,2.37,1.4h3.34v3.12
				H7.94v-3.17c1.51,0,2.62-0.13,3.34-0.38c0.72-0.25,1.17-0.63,1.35-1.13L26.07,8.2h7.8L46.85,43.45z M20.42,33.65H34.2
				l-6.83-18.94L20.42,33.65z"/>
			<path fill="#D2232A" d="M74.24,11.37c-3.98,0-5.97,0.83-5.97,2.48v30.14h10.55c1.36,0,2.58-0.19,3.66-0.57
				c1.08-0.38,2.01-1,2.8-1.88c0.79-0.88,1.43-2.05,1.91-3.52c0.48-1.47,0.82-3.32,1-5.54l3.55,0.38l-1.29,15.34h-35.2v-3.07
				c3.19,0,4.79-0.83,4.79-2.48V13.85c0-1.65-1.6-2.48-4.79-2.48V8.2h19V11.37z"/>
			<path fill="#D2232A" d="M117.05,8.2c2.3,0,4.4,0.17,6.31,0.51c1.9,0.34,3.53,0.95,4.88,1.83c1.35,0.88,2.39,2.07,3.13,3.58
				c0.74,1.51,1.1,3.43,1.1,5.76c0,2.37-0.37,4.34-1.11,5.92c-0.74,1.58-1.78,2.84-3.13,3.79c-1.35,0.95-2.98,1.62-4.88,2.02
				c-1.91,0.4-4.01,0.59-6.31,0.59h-8.31v10.43c0,1.66,1.99,2.49,5.97,2.49v3.07h-19v-3.07c3.19,0,4.79-0.83,4.79-2.48V13.85
				c0-1.65-1.6-2.48-4.79-2.48V8.2H117.05z M108.73,12.72v15.07h7.37c2.91,0,4.99-0.67,6.24-2s1.88-3.29,1.88-5.89
				c0-2.27-0.63-4.03-1.88-5.29c-1.26-1.26-3.34-1.89-6.24-1.89H108.73z"/>
			<path fill="#D2232A" d="M157.11,7.39c2.87,0,5.53,0.36,7.99,1.08c2.46,0.72,4.57,1.89,6.35,3.52c1.78,1.63,3.17,3.77,4.17,6.42
				c1,2.65,1.51,5.91,1.51,9.78c0,3.19-0.43,6.06-1.29,8.63c-0.86,2.56-2.15,4.75-3.87,6.56c-1.72,1.81-3.89,3.21-6.51,4.19
				c-2.62,0.98-5.67,1.48-9.15,1.48c-2.83,0-5.47-0.34-7.91-1.02c-2.44-0.68-4.55-1.81-6.32-3.39c-1.78-1.58-3.17-3.64-4.2-6.18
				c-1.02-2.54-1.53-5.68-1.53-9.41c0-3.33,0.39-6.33,1.18-9c0.79-2.67,2.03-4.94,3.71-6.83c1.69-1.88,3.84-3.32,6.46-4.33
				C150.31,7.89,153.45,7.39,157.11,7.39z M157.38,11.8c-2.22,0-4.14,0.33-5.76,1c-1.61,0.66-2.93,1.62-3.96,2.88
				c-1.02,1.26-1.78,2.8-2.26,4.63c-0.48,1.83-0.73,3.91-0.73,6.24c0,3.62,0.27,6.59,0.81,8.91c0.54,2.31,1.31,4.14,2.31,5.49
				c1,1.35,2.22,2.28,3.66,2.8c1.43,0.52,3.05,0.78,4.84,0.78c2.37,0,4.36-0.35,5.97-1.05c1.62-0.7,2.91-1.72,3.88-3.07
				c0.97-1.35,1.67-3.01,2.1-5c0.43-1.99,0.65-4.28,0.65-6.86c0-3.34-0.28-6.08-0.83-8.23c-0.56-2.15-1.34-3.86-2.34-5.11
				c-1-1.26-2.22-2.13-3.63-2.64S159.1,11.8,157.38,11.8z"/>
			<path fill="#D2232A" d="M219,21.38l-3.93,0.38c-0.72-3.01-2.1-5.44-4.14-7.27c-2.04-1.83-4.66-2.74-7.86-2.74
				c-2.37,0-4.39,0.41-6.08,1.24c-1.69,0.83-3.07,1.97-4.14,3.44c-1.08,1.47-1.87,3.22-2.37,5.25c-0.5,2.03-0.75,4.24-0.75,6.65
				c0,2.98,0.31,5.48,0.94,7.51c0.63,2.03,1.52,3.67,2.69,4.92c1.17,1.26,2.56,2.16,4.17,2.72c1.61,0.56,3.41,0.83,5.38,0.83
				c1.4,0,2.74-0.19,4.01-0.57c1.27-0.38,2.38-0.9,3.31-1.56c0.93-0.66,1.68-1.43,2.23-2.31c0.56-0.88,0.83-1.82,0.83-2.83v-2.8
				c0-1.65-1.61-2.48-4.84-2.48V28.7h16.47v3.07c-3.23,0-4.84,0.83-4.84,2.48v13.94h-5.44l-1.18-3.98c-0.5,0.61-1.15,1.2-1.94,1.78
				c-0.79,0.57-1.71,1.1-2.77,1.56c-1.06,0.47-2.26,0.83-3.61,1.1c-1.35,0.27-2.83,0.4-4.44,0.4c-2.55,0-5.01-0.39-7.37-1.16
				c-2.37-0.77-4.46-1.99-6.27-3.66c-1.81-1.67-3.26-3.8-4.33-6.4c-1.08-2.6-1.62-5.75-1.62-9.44c0-3.66,0.54-6.82,1.62-9.47
				c1.08-2.65,2.54-4.83,4.39-6.54c1.85-1.7,4.02-2.97,6.51-3.79c2.49-0.83,5.14-1.24,7.94-1.24c2.91,0,5.39,0.44,7.45,1.32
				c2.06,0.88,3.61,1.88,4.65,2.99l1.35-3.39H219V21.38z"/>
			<path fill="#D2232A" d="M267.32,43.45c0.36,1.08,1.83,1.61,4.41,1.61v3.12h-19.7v-3.12h4.74c1.04,0,1.56-0.34,1.56-1.02
				c0-0.11-0.05-0.3-0.16-0.59l-2.15-5.81H239.5l-1.99,5.38c-0.07,0.22-0.11,0.43-0.11,0.65c0,0.93,0.79,1.4,2.37,1.4h3.34v3.12
				h-14.69v-3.17c1.51,0,2.62-0.13,3.34-0.38c0.72-0.25,1.17-0.63,1.35-1.13l13.45-35.3h7.8L267.32,43.45z M240.9,33.65h13.78
				l-6.83-18.94L240.9,33.65z"/>
		</g>
		<g>
			<path fill="#D2232A" d="M155.01,64.07c0-0.47-0.08-0.81-0.24-1.01s-0.52-0.33-1.1-0.38c-0.22-0.03-0.33-0.14-0.33-0.33
				c0-0.1,0.02-0.22,0.05-0.35c0.22,0,0.52-0.01,0.89-0.04c0.38-0.02,0.69-0.06,0.94-0.11c0.37-0.05,0.7-0.11,1-0.19
				s0.51-0.11,0.64-0.11c0.22,0,0.33,0.13,0.33,0.38c0,0.2-0.01,0.44-0.04,0.72c-0.03,0.28-0.04,0.68-0.04,1.22
				c0.5-0.65,1.07-1.2,1.7-1.65c0.63-0.44,1.41-0.67,2.33-0.67c0.57,0,1.12,0.12,1.65,0.35c0.53,0.24,1,0.58,1.4,1.05
				c0.4,0.46,0.73,1.03,0.97,1.7c0.24,0.67,0.37,1.44,0.37,2.29c0,0.94-0.18,1.77-0.53,2.49c-0.35,0.72-0.79,1.33-1.31,1.83
				c-0.52,0.5-1.09,0.87-1.7,1.13c-0.61,0.26-1.18,0.39-1.7,0.39c-0.54,0-1.06-0.05-1.57-0.15c-0.51-0.1-1.05-0.28-1.6-0.53v4.56
				c0,0.44,0.19,0.73,0.58,0.89c0.39,0.16,1.02,0.28,1.89,0.37c0.19,0.03,0.28,0.14,0.28,0.33c0,0.1-0.02,0.24-0.05,0.4
				c-0.39-0.03-0.92-0.06-1.59-0.09c-0.67-0.02-1.3-0.04-1.89-0.04c-0.44,0-0.9,0.01-1.39,0.04c-0.49,0.03-0.95,0.05-1.39,0.09
				c-0.03-0.17-0.05-0.3-0.05-0.4c0-0.17,0.08-0.27,0.23-0.3c0.37-0.08,0.67-0.19,0.91-0.3c0.23-0.12,0.35-0.31,0.35-0.58V64.07z
				 M157.13,70.45c0.42,0.44,0.88,0.79,1.39,1.05c0.5,0.26,1.07,0.39,1.71,0.39c0.49,0,0.92-0.11,1.29-0.33
				c0.37-0.22,0.68-0.52,0.92-0.89c0.24-0.38,0.43-0.83,0.55-1.36c0.13-0.53,0.19-1.1,0.19-1.73c0-0.64-0.07-1.25-0.21-1.83
				c-0.14-0.58-0.35-1.09-0.63-1.52c-0.28-0.44-0.61-0.78-1.01-1.03c-0.4-0.25-0.84-0.38-1.32-0.38c-0.34,0-0.67,0.1-1.01,0.29
				c-0.34,0.19-0.64,0.44-0.92,0.74c-0.28,0.3-0.5,0.64-0.68,1.02c-0.18,0.38-0.26,0.76-0.26,1.15V70.45z"/>
			<path fill="#D2232A" d="M174.54,61.58c0.49,0,0.85,0.12,1.08,0.35c0.23,0.24,0.35,0.5,0.35,0.78c0,0.1-0.02,0.19-0.05,0.28
				c-0.03,0.08-0.11,0.17-0.24,0.26c-0.13,0.09-0.3,0.2-0.53,0.33c-0.23,0.13-0.54,0.28-0.94,0.47c-0.15-0.18-0.33-0.34-0.54-0.48
				c-0.21-0.13-0.44-0.2-0.69-0.2c-0.29,0-0.55,0.08-0.78,0.24c-0.24,0.16-0.44,0.38-0.6,0.66c-0.17,0.28-0.3,0.6-0.39,0.96
				s-0.14,0.73-0.14,1.12v4.33c0,0.37,0.19,0.64,0.58,0.82c0.39,0.18,0.94,0.31,1.66,0.42c0.17,0.03,0.25,0.13,0.25,0.3
				c0,0.1-0.02,0.24-0.05,0.4c-0.18-0.02-0.42-0.03-0.69-0.04c-0.28-0.01-0.57-0.02-0.87-0.04c-0.3-0.02-0.61-0.03-0.94-0.04
				c-0.32-0.01-0.62-0.01-0.89-0.01c-0.46,0-0.93,0.01-1.42,0.04c-0.49,0.03-0.95,0.05-1.39,0.09c-0.03-0.17-0.05-0.3-0.05-0.4
				c0-0.17,0.08-0.27,0.23-0.3c0.39-0.07,0.73-0.17,1.02-0.3c0.29-0.13,0.44-0.33,0.44-0.58v-6.4c0-0.35-0.02-0.65-0.06-0.88
				c-0.04-0.23-0.11-0.42-0.21-0.57c-0.1-0.14-0.25-0.25-0.44-0.31c-0.19-0.07-0.44-0.12-0.74-0.15c-0.22-0.03-0.33-0.14-0.33-0.33
				c0-0.1,0.02-0.22,0.05-0.35c0.22,0,0.52-0.01,0.92-0.04c0.39-0.03,0.72-0.05,0.97-0.09c0.37-0.07,0.7-0.14,0.98-0.21
				c0.28-0.08,0.49-0.11,0.62-0.11c0.24,0,0.36,0.13,0.36,0.38v1.69c0.54-0.59,1.08-1.08,1.62-1.47
				C173.23,61.78,173.85,61.58,174.54,61.58z"/>
			<path fill="#D2232A" d="M176.25,67.17c0-0.77,0.15-1.5,0.44-2.19c0.29-0.69,0.69-1.28,1.2-1.79c0.5-0.5,1.1-0.9,1.78-1.2
				c0.68-0.29,1.41-0.44,2.2-0.44c0.82,0,1.58,0.14,2.27,0.42c0.69,0.28,1.28,0.66,1.78,1.15c0.49,0.49,0.88,1.08,1.16,1.78
				c0.28,0.7,0.42,1.46,0.42,2.28c0,0.79-0.15,1.52-0.44,2.2c-0.29,0.68-0.69,1.27-1.2,1.78c-0.5,0.5-1.1,0.9-1.78,1.2
				c-0.68,0.29-1.41,0.44-2.2,0.44c-0.82,0-1.58-0.14-2.27-0.42c-0.69-0.28-1.28-0.66-1.78-1.15c-0.5-0.49-0.88-1.07-1.16-1.76
				C176.39,68.78,176.25,68.01,176.25,67.17z M178.62,66.34c0,0.62,0.07,1.26,0.2,1.91c0.13,0.66,0.34,1.25,0.62,1.78
				c0.28,0.53,0.63,0.97,1.07,1.31c0.44,0.34,0.97,0.52,1.59,0.52c0.96,0,1.7-0.34,2.23-1.01c0.53-0.67,0.79-1.54,0.79-2.6
				c0-0.62-0.06-1.27-0.19-1.95c-0.13-0.68-0.33-1.3-0.6-1.86c-0.28-0.56-0.64-1.03-1.08-1.4c-0.44-0.37-1-0.55-1.65-0.55
				c-0.89,0-1.61,0.31-2.15,0.92C178.89,64.02,178.62,65,178.62,66.34z"/>
			<path fill="#D2232A" d="M190.81,62.92h-1.51v-0.45c0-0.19,0.08-0.3,0.24-0.34c0.16-0.04,0.33-0.08,0.52-0.1
				c0.18-0.03,0.36-0.08,0.52-0.18c0.16-0.09,0.24-0.29,0.24-0.59v-1.16c0-0.92,0.13-1.71,0.39-2.37c0.26-0.66,0.59-1.2,1-1.62
				c0.4-0.43,0.85-0.74,1.35-0.94c0.49-0.2,0.98-0.3,1.45-0.3c0.55,0,1.05,0.05,1.5,0.16c0.44,0.11,0.83,0.26,1.15,0.44
				c0.32,0.19,0.57,0.39,0.74,0.62c0.18,0.23,0.26,0.46,0.26,0.69c0,0.1-0.07,0.2-0.21,0.29c-0.14,0.09-0.3,0.17-0.48,0.24
				c-0.18,0.07-0.35,0.12-0.52,0.15c-0.17,0.03-0.29,0.05-0.35,0.05c-0.24,0-0.41-0.1-0.53-0.3c-0.19-0.37-0.41-0.7-0.67-0.98
				c-0.26-0.29-0.65-0.43-1.17-0.43c-0.6,0-1.05,0.25-1.35,0.74c-0.29,0.5-0.44,1.2-0.44,2.13v3.2h2.97c0,0.34-0.02,0.6-0.08,0.78
				c-0.05,0.19-0.19,0.28-0.43,0.28h-2.47v7.71c0,0.44,0.19,0.73,0.58,0.89c0.39,0.16,1.02,0.28,1.89,0.37
				c0.18,0.03,0.28,0.14,0.28,0.33c0,0.05-0.01,0.13-0.03,0.23c-0.02,0.1-0.02,0.16-0.02,0.18c-0.05,0-0.2-0.01-0.44-0.03
				c-0.24-0.02-0.53-0.03-0.87-0.05s-0.7-0.03-1.08-0.04c-0.39-0.01-0.75-0.01-1.08-0.01c-0.29,0-0.58,0-0.87,0.01
				c-0.29,0.01-0.58,0.02-0.84,0.04c-0.27,0.02-0.5,0.03-0.69,0.05c-0.19,0.02-0.31,0.03-0.37,0.03c0-0.02-0.01-0.08-0.03-0.18
				c-0.02-0.1-0.02-0.18-0.02-0.23c0-0.17,0.08-0.27,0.23-0.3c0.37-0.07,0.67-0.16,0.91-0.29c0.23-0.13,0.35-0.32,0.35-0.59V62.92z"
				/>
			<path fill="#D2232A" d="M206.16,70.15c0.12-0.12,0.24-0.18,0.38-0.18c0.17,0,0.33,0.14,0.48,0.43c-0.22,0.3-0.47,0.6-0.76,0.88
				c-0.29,0.29-0.63,0.54-1.02,0.77c-0.39,0.23-0.84,0.41-1.35,0.54c-0.5,0.13-1.08,0.2-1.74,0.2c-0.67,0-1.31-0.11-1.92-0.33
				c-0.6-0.22-1.14-0.55-1.6-1.01c-0.46-0.45-0.83-1.02-1.11-1.69c-0.28-0.67-0.42-1.46-0.42-2.37c0-0.86,0.16-1.65,0.49-2.37
				c0.33-0.72,0.75-1.34,1.27-1.85c0.52-0.51,1.1-0.91,1.73-1.2c0.63-0.28,1.24-0.43,1.83-0.43c1.56,0,2.7,0.45,3.41,1.36
				c0.71,0.91,1.07,2.09,1.07,3.55c0,0.1-0.05,0.15-0.15,0.15l-7.28,0.33c0,0.66,0.09,1.26,0.28,1.81c0.18,0.55,0.44,1.03,0.78,1.44
				c0.33,0.4,0.74,0.72,1.22,0.94c0.48,0.23,1.02,0.34,1.62,0.34c0.54,0,1.05-0.13,1.54-0.38
				C205.41,70.85,205.82,70.53,206.16,70.15z M202.09,62.46c-0.84,0-1.49,0.33-1.96,0.98c-0.47,0.66-0.7,1.51-0.7,2.57l4.74-0.23
				c0.25,0,0.38-0.11,0.38-0.33c0-0.32-0.05-0.66-0.15-1.01c-0.1-0.35-0.25-0.68-0.45-0.97c-0.2-0.29-0.46-0.54-0.76-0.73
				C202.87,62.56,202.5,62.46,202.09,62.46z"/>
			<path fill="#D2232A" d="M215.58,64.65c-0.13,0-0.23-0.03-0.29-0.09c-0.06-0.06-0.1-0.12-0.11-0.19
				c-0.12-0.69-0.39-1.18-0.82-1.47s-0.96-0.44-1.6-0.44c-0.49,0-0.92,0.14-1.3,0.42c-0.38,0.28-0.57,0.66-0.57,1.15
				c0,0.44,0.17,0.8,0.52,1.1c0.34,0.29,0.97,0.58,1.88,0.87c0.49,0.15,0.94,0.32,1.35,0.5c0.41,0.19,0.76,0.41,1.06,0.67
				c0.29,0.26,0.52,0.58,0.69,0.96c0.17,0.38,0.25,0.83,0.25,1.35c0,0.44-0.08,0.86-0.24,1.26c-0.16,0.4-0.4,0.76-0.73,1.06
				s-0.74,0.55-1.23,0.73c-0.5,0.18-1.09,0.28-1.78,0.28c-0.54,0-1.14-0.06-1.8-0.19c-0.66-0.13-1.26-0.34-1.8-0.64
				c-0.03-0.44-0.06-0.89-0.09-1.37c-0.03-0.48-0.04-0.96-0.04-1.45h0.25c0.17,0,0.31,0.03,0.43,0.09c0.12,0.06,0.19,0.16,0.2,0.29
				c0.07,0.71,0.34,1.27,0.82,1.7c0.48,0.43,1.15,0.64,2,0.64c0.69,0,1.22-0.16,1.59-0.47c0.37-0.31,0.55-0.73,0.55-1.27
				c0-0.55-0.2-0.98-0.6-1.27c-0.4-0.29-1-0.56-1.79-0.79c-0.99-0.3-1.77-0.7-2.33-1.18c-0.56-0.49-0.84-1.2-0.84-2.14
				c0-0.44,0.08-0.85,0.25-1.23c0.17-0.39,0.4-0.72,0.71-1.01c0.3-0.28,0.67-0.51,1.11-0.68c0.44-0.17,0.92-0.25,1.46-0.25
				c0.67,0,1.31,0.09,1.9,0.26c0.6,0.18,1.06,0.37,1.4,0.57c0.02,0.13,0.03,0.3,0.05,0.49c0.02,0.19,0.03,0.4,0.04,0.6
				c0.01,0.21,0.02,0.42,0.02,0.63c0.01,0.21,0.01,0.4,0.01,0.57L215.58,64.65z"/>
			<path fill="#D2232A" d="M225.33,64.65c-0.13,0-0.23-0.03-0.29-0.09c-0.06-0.06-0.1-0.12-0.11-0.19
				c-0.12-0.69-0.39-1.18-0.82-1.47s-0.96-0.44-1.6-0.44c-0.49,0-0.92,0.14-1.3,0.42c-0.38,0.28-0.57,0.66-0.57,1.15
				c0,0.44,0.17,0.8,0.52,1.1c0.34,0.29,0.97,0.58,1.88,0.87c0.49,0.15,0.94,0.32,1.35,0.5c0.41,0.19,0.76,0.41,1.06,0.67
				c0.29,0.26,0.52,0.58,0.69,0.96c0.17,0.38,0.25,0.83,0.25,1.35c0,0.44-0.08,0.86-0.24,1.26c-0.16,0.4-0.4,0.76-0.73,1.06
				s-0.74,0.55-1.23,0.73c-0.5,0.18-1.09,0.28-1.78,0.28c-0.54,0-1.14-0.06-1.8-0.19c-0.66-0.13-1.26-0.34-1.8-0.64
				c-0.03-0.44-0.06-0.89-0.09-1.37c-0.03-0.48-0.04-0.96-0.04-1.45h0.25c0.17,0,0.31,0.03,0.43,0.09c0.12,0.06,0.19,0.16,0.2,0.29
				c0.07,0.71,0.34,1.27,0.82,1.7c0.48,0.43,1.15,0.64,2,0.64c0.69,0,1.22-0.16,1.59-0.47c0.37-0.31,0.55-0.73,0.55-1.27
				c0-0.55-0.2-0.98-0.6-1.27c-0.4-0.29-1-0.56-1.79-0.79c-0.99-0.3-1.77-0.7-2.33-1.18c-0.56-0.49-0.84-1.2-0.84-2.14
				c0-0.44,0.08-0.85,0.25-1.23c0.17-0.39,0.4-0.72,0.71-1.01c0.3-0.28,0.67-0.51,1.11-0.68c0.44-0.17,0.92-0.25,1.46-0.25
				c0.67,0,1.31,0.09,1.9,0.26c0.6,0.18,1.06,0.37,1.4,0.57c0.02,0.13,0.03,0.3,0.05,0.49c0.02,0.19,0.03,0.4,0.04,0.6
				c0.01,0.21,0.02,0.42,0.02,0.63c0.01,0.21,0.01,0.4,0.01,0.57L225.33,64.65z"/>
			<path fill="#D2232A" d="M230.96,72.49c-0.29,0-0.58,0-0.88,0.01c-0.3,0.01-0.57,0.02-0.82,0.04s-0.47,0.03-0.66,0.05
				c-0.18,0.02-0.3,0.03-0.35,0.03c0-0.02-0.01-0.08-0.03-0.18c-0.02-0.1-0.02-0.18-0.02-0.23c0-0.17,0.08-0.27,0.23-0.3
				c0.44-0.08,0.79-0.18,1.06-0.3c0.27-0.12,0.4-0.31,0.4-0.58v-6.85c0-0.5-0.09-0.86-0.26-1.08c-0.18-0.22-0.56-0.35-1.15-0.4
				c-0.22-0.03-0.33-0.15-0.33-0.35c0-0.08,0.02-0.19,0.05-0.33c0.22,0,0.52-0.01,0.92-0.04c0.39-0.02,0.72-0.05,0.97-0.09
				c0.39-0.07,0.74-0.14,1.04-0.21c0.31-0.08,0.53-0.11,0.66-0.11c0.24,0,0.36,0.13,0.36,0.38c0,0.24-0.03,0.52-0.08,0.84
				c-0.05,0.33-0.08,0.76-0.08,1.3v6.95c0,0.27,0.13,0.46,0.39,0.58c0.26,0.12,0.63,0.22,1.1,0.3c0.13,0.03,0.2,0.13,0.2,0.3
				c0,0.05,0,0.13-0.01,0.23c-0.01,0.1-0.02,0.16-0.04,0.18c-0.05,0-0.16-0.01-0.34-0.03c-0.18-0.02-0.39-0.03-0.64-0.05
				s-0.53-0.03-0.82-0.04C231.54,72.49,231.25,72.49,230.96,72.49z M229.48,57.35c0-0.4,0.14-0.75,0.42-1.05
				c0.28-0.29,0.63-0.44,1.05-0.44c0.4,0,0.74,0.15,1.01,0.44c0.27,0.29,0.4,0.64,0.4,1.05c0,0.44-0.13,0.79-0.4,1.06
				c-0.27,0.27-0.6,0.4-1.01,0.4c-0.42,0-0.77-0.13-1.05-0.4C229.62,58.14,229.48,57.79,229.48,57.35z"/>
			<path fill="#D2232A" d="M235.15,67.17c0-0.77,0.15-1.5,0.44-2.19c0.29-0.69,0.69-1.28,1.2-1.79c0.5-0.5,1.1-0.9,1.78-1.2
				s1.41-0.44,2.2-0.44c0.82,0,1.58,0.14,2.27,0.42c0.69,0.28,1.28,0.66,1.78,1.15c0.49,0.49,0.88,1.08,1.16,1.78
				c0.28,0.7,0.42,1.46,0.42,2.28c0,0.79-0.15,1.52-0.44,2.2c-0.29,0.68-0.69,1.27-1.2,1.78c-0.5,0.5-1.1,0.9-1.78,1.2
				c-0.68,0.29-1.41,0.44-2.2,0.44c-0.82,0-1.58-0.14-2.27-0.42c-0.69-0.28-1.28-0.66-1.78-1.15c-0.5-0.49-0.88-1.07-1.16-1.76
				C235.29,68.78,235.15,68.01,235.15,67.17z M237.52,66.34c0,0.62,0.07,1.26,0.2,1.91c0.13,0.66,0.34,1.25,0.62,1.78
				c0.28,0.53,0.63,0.97,1.07,1.31c0.44,0.34,0.97,0.52,1.59,0.52c0.96,0,1.7-0.34,2.23-1.01c0.53-0.67,0.79-1.54,0.79-2.6
				c0-0.62-0.06-1.27-0.19-1.95c-0.13-0.68-0.33-1.3-0.6-1.86c-0.28-0.56-0.64-1.03-1.08-1.4c-0.44-0.37-1-0.55-1.65-0.55
				c-0.89,0-1.61,0.31-2.15,0.92C237.79,64.02,237.52,65,237.52,66.34z"/>
			<path fill="#D2232A" d="M259.21,71.05c0,0.25,0.15,0.44,0.45,0.57c0.3,0.13,0.64,0.22,1.01,0.29c0.15,0.03,0.23,0.13,0.23,0.3
				c0,0.1-0.02,0.24-0.05,0.4c-0.44-0.03-0.87-0.06-1.29-0.09c-0.42-0.02-0.87-0.04-1.36-0.04c-0.45,0-0.9,0.01-1.35,0.04
				c-0.44,0.03-0.89,0.05-1.32,0.09c-0.03-0.17-0.05-0.3-0.05-0.4c0-0.17,0.08-0.27,0.23-0.3c0.35-0.07,0.67-0.16,0.96-0.29
				c0.29-0.13,0.43-0.31,0.43-0.57v-4.94c0-0.42-0.03-0.81-0.08-1.16c-0.05-0.35-0.15-0.66-0.29-0.92
				c-0.14-0.26-0.33-0.46-0.58-0.61c-0.24-0.14-0.56-0.21-0.94-0.21c-0.42,0-0.83,0.07-1.23,0.21c-0.4,0.14-0.76,0.35-1.07,0.63
				c-0.31,0.28-0.56,0.62-0.74,1.02c-0.18,0.4-0.28,0.87-0.28,1.39v4.59c0,0.25,0.15,0.44,0.44,0.57s0.61,0.22,0.94,0.29
				c0.15,0.03,0.23,0.13,0.23,0.3c0,0.1-0.02,0.24-0.05,0.4c-0.44-0.03-0.87-0.06-1.29-0.09c-0.42-0.02-0.87-0.04-1.35-0.04
				c-0.49,0-0.96,0.01-1.4,0.04c-0.44,0.03-0.87,0.05-1.29,0.09c-0.03-0.17-0.05-0.3-0.05-0.4c0-0.17,0.08-0.27,0.23-0.3
				c0.37-0.07,0.71-0.16,1.01-0.29c0.3-0.13,0.45-0.32,0.45-0.59v-6.85c0-0.5-0.09-0.86-0.26-1.08c-0.18-0.22-0.56-0.35-1.15-0.4
				c-0.22-0.03-0.33-0.15-0.33-0.35c0-0.08,0.02-0.19,0.05-0.33c0.22,0,0.52-0.01,0.92-0.04c0.39-0.02,0.72-0.05,0.97-0.09
				c0.39-0.07,0.74-0.14,1.04-0.21c0.31-0.08,0.53-0.11,0.66-0.11c0.24,0,0.36,0.13,0.36,0.38c0,0.24-0.03,0.52-0.08,0.84
				c-0.05,0.33-0.08,0.76-0.08,1.3c0.72-0.81,1.41-1.43,2.07-1.86c0.66-0.44,1.38-0.66,2.17-0.66c1.02,0,1.79,0.3,2.3,0.89
				c0.51,0.6,0.77,1.42,0.77,2.48V71.05z"/>
			<path fill="#D2232A" d="M272.92,71.81c0.19,0,0.29,0.18,0.3,0.53c-0.44,0.3-0.99,0.45-1.66,0.45c-0.37,0-0.69-0.05-0.97-0.16
				c-0.27-0.11-0.5-0.26-0.69-0.44c-0.19-0.18-0.33-0.39-0.43-0.63c-0.1-0.24-0.17-0.48-0.2-0.73c-0.42,0.76-0.92,1.27-1.5,1.55
				c-0.58,0.28-1.25,0.42-2,0.42c-0.34,0-0.69-0.03-1.07-0.09c-0.38-0.06-0.73-0.18-1.07-0.37c-0.34-0.18-0.61-0.44-0.83-0.78
				c-0.22-0.34-0.33-0.78-0.33-1.34c0-0.62,0.15-1.15,0.44-1.57c0.29-0.43,0.67-0.78,1.13-1.06c0.46-0.28,0.96-0.5,1.51-0.67
				c0.55-0.17,1.07-0.31,1.57-0.43c0.28-0.05,0.55-0.1,0.79-0.16c0.24-0.06,0.46-0.12,0.64-0.19c0.23-0.07,0.38-0.16,0.44-0.28
				c0.06-0.12,0.09-0.34,0.09-0.68c0-0.79-0.15-1.44-0.45-1.95c-0.3-0.51-0.84-0.77-1.61-0.77c-0.29,0-0.53,0.03-0.73,0.1
				c-0.2,0.07-0.37,0.17-0.5,0.31c-0.13,0.14-0.25,0.33-0.35,0.57c-0.1,0.24-0.2,0.51-0.3,0.83c-0.05,0.18-0.16,0.32-0.34,0.4
				c-0.18,0.08-0.47,0.19-0.89,0.3c-0.1,0.03-0.23,0.07-0.38,0.1c-0.15,0.03-0.28,0.05-0.38,0.05c-0.17,0-0.25-0.18-0.25-0.53
				c0-0.37,0.14-0.74,0.43-1.11c0.29-0.37,0.65-0.7,1.1-0.98c0.44-0.29,0.93-0.52,1.45-0.69c0.52-0.18,1.02-0.26,1.49-0.26
				c0.59,0,1.12,0.05,1.59,0.15c0.47,0.1,0.88,0.29,1.22,0.55c0.34,0.27,0.6,0.63,0.78,1.08c0.18,0.45,0.27,1.04,0.27,1.76v4.33
				c0,0.59,0.02,1.01,0.06,1.27c0.04,0.26,0.1,0.47,0.19,0.62c0.12,0.24,0.25,0.39,0.39,0.47c0.14,0.08,0.29,0.11,0.44,0.11
				c0.19,0,0.31-0.02,0.39-0.05C272.75,71.83,272.83,71.81,272.92,71.81z M269.09,66.9l-0.81,0.13c-0.44,0.08-0.87,0.19-1.28,0.3
				c-0.41,0.12-0.78,0.28-1.1,0.49c-0.32,0.21-0.58,0.48-0.77,0.79c-0.19,0.32-0.29,0.71-0.29,1.18c0,0.64,0.16,1.13,0.49,1.46
				c0.33,0.34,0.74,0.5,1.23,0.5c0.32,0,0.64-0.07,0.95-0.21c0.31-0.14,0.58-0.34,0.81-0.6c0.23-0.26,0.41-0.57,0.56-0.92
				c0.14-0.35,0.22-0.74,0.22-1.16V66.9z"/>
			<path fill="#D2232A" d="M279.82,72.62c-0.44-0.03-0.88-0.06-1.34-0.09c-0.46-0.02-0.91-0.04-1.37-0.04s-0.93,0.01-1.41,0.04
				c-0.48,0.03-0.93,0.05-1.35,0.09c-0.03-0.17-0.05-0.3-0.05-0.4c0-0.17,0.08-0.27,0.23-0.3c0.37-0.07,0.71-0.16,1.03-0.29
				c0.32-0.13,0.48-0.32,0.48-0.59V57.47c0-0.54-0.1-0.9-0.31-1.1c-0.21-0.19-0.61-0.31-1.2-0.37c-0.22-0.03-0.33-0.15-0.33-0.35
				c0-0.1,0.02-0.22,0.05-0.35c0.22,0,0.52-0.01,0.91-0.04c0.39-0.03,0.74-0.05,1.06-0.09c0.39-0.05,0.74-0.12,1.04-0.2
				c0.31-0.08,0.53-0.13,0.66-0.13c0.15,0,0.25,0.03,0.31,0.1c0.05,0.07,0.08,0.16,0.08,0.28c0,0.29-0.02,0.62-0.08,1
				c-0.05,0.38-0.07,0.82-0.07,1.32v13.48c0,0.27,0.15,0.47,0.47,0.59c0.31,0.13,0.66,0.22,1.05,0.29c0.13,0.03,0.2,0.13,0.2,0.3
				C279.87,72.31,279.85,72.45,279.82,72.62z"/>
		</g>
	</g>
</g>
<g>
</g>
<g>
</g>
<g>
</g>
<g>
</g>
<g>
</g>
<g>
</g>
</svg>
