<?xml version="1.0" encoding="utf-8"?>
<!-- Generator: Adobe Illustrator 28.0.0, SVG Export Plug-In . SVG Version: 6.00 Build 0)  -->
<svg version="1.1" xmlns="http://www.w3.org/2000/svg" xmlns:xlink="http://www.w3.org/1999/xlink" x="0px" y="0px"
	 width="482.34px" height="332.48px" viewBox="0 0 482.34 332.48" enable-background="new 0 0 482.34 332.48" xml:space="preserve">
<g id="Layer_1">
	<g>
		<g>
			<g>
				<path d="M174.53,122.79H91.75c-0.78,0-1.42-0.63-1.42-1.42s0.63-1.42,1.42-1.42h82.78c0.78,0,1.42,0.63,1.42,1.42
					S175.31,122.79,174.53,122.79z"/>
			</g>
			<g>
				<path d="M174.53,136.68H91.75c-0.78,0-1.42-0.63-1.42-1.42s0.63-1.42,1.42-1.42h82.78c0.78,0,1.42,0.63,1.42,1.42
					S175.31,136.68,174.53,136.68z"/>
			</g>
			<g>
				<path d="M174.53,150.56H91.75c-0.78,0-1.42-0.63-1.42-1.42s0.63-1.42,1.42-1.42h82.78c0.78,0,1.42,0.63,1.42,1.42
					S175.31,150.56,174.53,150.56z"/>
			</g>
			<g>
				<path d="M174.53,164.45H91.75c-0.78,0-1.42-0.63-1.42-1.42s0.63-1.42,1.42-1.42h82.78c0.78,0,1.42,0.63,1.42,1.42
					S175.31,164.45,174.53,164.45z"/>
			</g>
			<g>
				<path d="M174.53,178.33H91.75c-0.78,0-1.42-0.63-1.42-1.42s0.63-1.42,1.42-1.42h82.78c0.78,0,1.42,0.63,1.42,1.42
					S175.31,178.33,174.53,178.33z"/>
			</g>
			<g>
				<path d="M174.53,192.22H91.75c-0.78,0-1.42-0.63-1.42-1.42s0.63-1.42,1.42-1.42h82.78c0.78,0,1.42,0.63,1.42,1.42
					S175.31,192.22,174.53,192.22z"/>
			</g>
			<g>
				<path d="M278.53,122.79h-82.78c-0.78,0-1.42-0.63-1.42-1.42s0.63-1.42,1.42-1.42h82.78c0.78,0,1.42,0.63,1.42,1.42
					S279.31,122.79,278.53,122.79z"/>
			</g>
			<g>
				<path d="M278.53,136.68h-82.78c-0.78,0-1.42-0.63-1.42-1.42s0.63-1.42,1.42-1.42h82.78c0.78,0,1.42,0.63,1.42,1.42
					S279.31,136.68,278.53,136.68z"/>
			</g>
			<g>
				<path d="M278.53,150.56h-82.78c-0.78,0-1.42-0.63-1.42-1.42s0.63-1.42,1.42-1.42h82.78c0.78,0,1.42,0.63,1.42,1.42
					S279.31,150.56,278.53,150.56z"/>
			</g>
			<g>
				<path d="M278.53,164.45h-82.78c-0.78,0-1.42-0.63-1.42-1.42s0.63-1.42,1.42-1.42h82.78c0.78,0,1.42,0.63,1.42,1.42
					S279.31,164.45,278.53,164.45z"/>
			</g>
			<g>
				<path d="M278.53,178.33h-82.78c-0.78,0-1.42-0.63-1.42-1.42s0.63-1.42,1.42-1.42h82.78c0.78,0,1.42,0.63,1.42,1.42
					S279.31,178.33,278.53,178.33z"/>
			</g>
			<g>
				<path d="M278.53,192.22h-82.78c-0.78,0-1.42-0.63-1.42-1.42s0.63-1.42,1.42-1.42h82.78c0.78,0,1.42,0.63,1.42,1.42
					S279.31,192.22,278.53,192.22z"/>
			</g>
			<g>
				<path d="M382.52,122.79h-82.78c-0.78,0-1.42-0.63-1.42-1.42s0.63-1.42,1.42-1.42h82.78c0.78,0,1.42,0.63,1.42,1.42
					S383.31,122.79,382.52,122.79z"/>
			</g>
			<g>
				<path d="M382.52,136.68h-82.78c-0.78,0-1.42-0.63-1.42-1.42s0.63-1.42,1.42-1.42h82.78c0.78,0,1.42,0.63,1.42,1.42
					S383.31,136.68,382.52,136.68z"/>
			</g>
			<g>
				<path d="M382.52,150.56h-82.78c-0.78,0-1.42-0.63-1.42-1.42s0.63-1.42,1.42-1.42h82.78c0.78,0,1.42,0.63,1.42,1.42
					S383.31,150.56,382.52,150.56z"/>
			</g>
			<g>
				<path d="M382.52,164.45h-82.78c-0.78,0-1.42-0.63-1.42-1.42s0.63-1.42,1.42-1.42h82.78c0.78,0,1.42,0.63,1.42,1.42
					S383.31,164.45,382.52,164.45z"/>
			</g>
			<g>
				<path d="M382.52,178.33h-82.78c-0.78,0-1.42-0.63-1.42-1.42s0.63-1.42,1.42-1.42h82.78c0.78,0,1.42,0.63,1.42,1.42
					S383.31,178.33,382.52,178.33z"/>
			</g>
			<g>
				<path d="M382.52,192.22h-82.78c-0.78,0-1.42-0.63-1.42-1.42s0.63-1.42,1.42-1.42h82.78c0.78,0,1.42,0.63,1.42,1.42
					S383.31,192.22,382.52,192.22z"/>
			</g>
		</g>
		<g>
			<g>
				<path d="M174.53,206.1H91.75c-0.78,0-1.42-0.63-1.42-1.42s0.63-1.42,1.42-1.42h82.78c0.78,0,1.42,0.63,1.42,1.42
					S175.31,206.1,174.53,206.1z"/>
			</g>
			<g>
				<path d="M174.53,219.99H91.75c-0.78,0-1.42-0.63-1.42-1.42s0.63-1.42,1.42-1.42h82.78c0.78,0,1.42,0.63,1.42,1.42
					S175.31,219.99,174.53,219.99z"/>
			</g>
			<g>
				<path d="M174.53,233.87H91.75c-0.78,0-1.42-0.63-1.42-1.42s0.63-1.42,1.42-1.42h82.78c0.78,0,1.42,0.63,1.42,1.42
					S175.31,233.87,174.53,233.87z"/>
			</g>
			<g>
				<path d="M174.53,247.76H91.75c-0.78,0-1.42-0.63-1.42-1.42s0.63-1.42,1.42-1.42h82.78c0.78,0,1.42,0.63,1.42,1.42
					S175.31,247.76,174.53,247.76z"/>
			</g>
			<g>
				<path d="M278.53,206.1h-82.78c-0.78,0-1.42-0.63-1.42-1.42s0.63-1.42,1.42-1.42h82.78c0.78,0,1.42,0.63,1.42,1.42
					S279.31,206.1,278.53,206.1z"/>
			</g>
			<g>
				<path d="M278.53,219.99h-82.78c-0.78,0-1.42-0.63-1.42-1.42s0.63-1.42,1.42-1.42h82.78c0.78,0,1.42,0.63,1.42,1.42
					S279.31,219.99,278.53,219.99z"/>
			</g>
			<g>
				<path d="M278.53,233.87h-82.78c-0.78,0-1.42-0.63-1.42-1.42s0.63-1.42,1.42-1.42h82.78c0.78,0,1.42,0.63,1.42,1.42
					S279.31,233.87,278.53,233.87z"/>
			</g>
			<g>
				<path d="M278.53,247.76h-82.78c-0.78,0-1.42-0.63-1.42-1.42s0.63-1.42,1.42-1.42h82.78c0.78,0,1.42,0.63,1.42,1.42
					S279.31,247.76,278.53,247.76z"/>
			</g>
			<g>
				<path d="M382.52,206.1h-82.78c-0.78,0-1.42-0.63-1.42-1.42s0.63-1.42,1.42-1.42h82.78c0.78,0,1.42,0.63,1.42,1.42
					S383.31,206.1,382.52,206.1z"/>
			</g>
			<g>
				<path d="M382.52,219.99h-82.78c-0.78,0-1.42-0.63-1.42-1.42s0.63-1.42,1.42-1.42h82.78c0.78,0,1.42,0.63,1.42,1.42
					S383.31,219.99,382.52,219.99z"/>
			</g>
			<g>
				<path d="M382.52,233.87h-82.78c-0.78,0-1.42-0.63-1.42-1.42s0.63-1.42,1.42-1.42h82.78c0.78,0,1.42,0.63,1.42,1.42
					S383.31,233.87,382.52,233.87z"/>
			</g>
			<g>
				<path d="M382.52,247.76h-82.78c-0.78,0-1.42-0.63-1.42-1.42s0.63-1.42,1.42-1.42h82.78c0.78,0,1.42,0.63,1.42,1.42
					S383.31,247.76,382.52,247.76z"/>
			</g>
		</g>
	</g>
</g>
<g id="Layer_3" display="none">
	<path display="inline" d="M237.09,0.08c-1.18-0.32-2.88,0.4-3.08,1.75c-3.94,27-5.97,54.25-5.96,81.54
		c0,7.71,0.17,15.41,0.48,23.11c0.13,3.21,5.13,3.22,5,0c-1.11-26.95-0.29-53.97,2.49-80.8c0.78-7.52,1.71-15.03,2.81-22.52
		C239.03,1.82,238.51,0.47,237.09,0.08z"/>
	<path display="inline" d="M329.47,25.48c-12.8,18.93-23.87,39.01-32.99,59.96c-2.58,5.92-5.01,11.91-7.3,17.95
		c-0.48,1.26,0.53,2.74,1.75,3.08c1.4,0.39,2.6-0.48,3.08-1.75c7.94-21.03,17.81-41.32,29.44-60.56
		c3.31-5.48,6.76-10.86,10.35-16.16C335.6,25.33,331.27,22.83,329.47,25.48z"/>
	<path display="inline" d="M191.82,106.21c-2.41-6.16-5.82-11.89-9.03-17.66c-2.91-5.22-5.88-10.41-9.02-15.49
		c-6.21-10.05-13.13-19.79-21.48-28.19c-4.7-4.74-9.88-9.01-15.47-12.65c-2.7-1.76-5.21,2.57-2.52,4.32
		c19.34,12.6,31.91,32.7,42.99,52.41c3.4,6.05,7.18,12.11,9.72,18.59c0.49,1.26,1.68,2.13,3.08,1.75
		C191.27,108.95,192.31,107.47,191.82,106.21z"/>
	<path display="inline" d="M482.24,53.61c-0.33-1.21-1.81-2.23-3.08-1.75c-14.85,5.69-29.49,11.94-43.85,18.76
		c-14.31,6.79-28.36,14.14-42.1,22.02c-7.78,4.46-15.45,9.09-23.02,13.89c-2.71,1.72-0.21,6.05,2.52,4.32
		c13.32-8.44,26.96-16.36,40.89-23.74c13.86-7.35,28-14.16,42.39-20.41c8.09-3.52,16.27-6.85,24.51-10.01
		C481.76,56.2,482.63,55,482.24,53.61z"/>
	<path display="inline" d="M107.93,105.62C93.89,87.2,77.75,70.44,59.76,55.84c-5.16-4.18-10.45-8.19-15.88-12.02
		c-1.1-0.78-2.78-0.2-3.42,0.9c-0.73,1.25-0.21,2.64,0.9,3.42C59.8,61.16,76.66,76.4,91.54,93.38c4.19,4.78,8.23,9.7,12.08,14.76
		c0.82,1.07,2.15,1.64,3.42,0.9C108.09,108.42,108.76,106.7,107.93,105.62z"/>
	<path display="inline" d="M80.6,171.06c-18.53-12.62-38.62-22.91-59.68-30.62c-5.88-2.15-11.83-4.09-17.84-5.83
		c-3.1-0.9-4.42,3.93-1.33,4.82c21.13,6.12,41.46,14.82,60.46,25.92c5.4,3.16,10.69,6.51,15.87,10.03
		C80.75,177.2,83.25,172.87,80.6,171.06z"/>
	<path display="inline" d="M82.93,189.21c-0.4-1.44-1.73-1.93-3.08-1.75c-18.32,2.51-36.34,7.16-53.58,13.85
		c-4.94,1.92-9.82,4-14.63,6.23c-1.22,0.57-1.53,2.33-0.9,3.42c0.73,1.26,2.19,1.47,3.42,0.9c16.51-7.66,33.92-13.35,51.75-16.99
		c5.06-1.03,10.15-1.89,15.26-2.59C82.52,192.1,83.25,190.39,82.93,189.21z"/>
	<path display="inline" d="M401.73,171.06c18.53-12.62,38.62-22.91,59.68-30.62c5.88-2.15,11.83-4.09,17.84-5.83
		c3.1-0.9,4.42,3.93,1.33,4.82c-21.13,6.12-41.46,14.82-60.46,25.92c-5.4,3.16-10.69,6.51-15.87,10.03
		C401.59,177.2,399.08,172.87,401.73,171.06z"/>
	<path display="inline" d="M393.59,222.37c0.4-1.44,1.73-1.93,3.08-1.75c18.32,2.51,36.34,7.16,53.58,13.85
		c4.94,1.92,9.82,4,14.63,6.23c1.22,0.57,1.53,2.33,0.9,3.42c-0.73,1.26-2.19,1.47-3.42,0.9c-16.51-7.66-33.92-13.35-51.75-16.99
		c-5.06-1.03-10.15-1.89-15.26-2.59C394,225.26,393.26,223.55,393.59,222.37z"/>
	<path display="inline" d="M76.52,253.96c-18.49,4.44-36.29,11.83-52.48,21.8c-4.59,2.83-9.05,5.87-13.37,9.1
		c-1.08,0.81-1.63,2.16-0.9,3.42c0.62,1.06,2.33,1.71,3.42,0.9c14.95-11.18,31.63-20.02,49.33-25.98c5.04-1.7,10.16-3.17,15.34-4.41
		C80.97,258.03,79.65,253.2,76.52,253.96z"/>
	<path display="inline" d="M140.03,262.29c-13.91,8.75-25.8,20.56-34.67,34.39c-2.49,3.89-4.72,7.93-6.7,12.1
		c-0.58,1.22-0.34,2.7,0.9,3.42c1.09,0.64,2.84,0.33,3.42-0.9c6.78-14.29,16.65-26.94,28.86-37c3.4-2.8,6.99-5.36,10.71-7.7
		C145.27,264.89,142.77,260.56,140.03,262.29z"/>
	<path display="inline" d="M369.44,262.01c4.15,5.16,9.11,9.61,13.9,14.15c4.34,4.11,8.72,8.17,13.24,12.08
		c8.93,7.73,18.45,14.95,28.93,20.47c5.91,3.11,12.12,5.64,18.55,7.44c3.11,0.87,4.21-4.01,1.12-4.87
		c-22.22-6.23-40.23-21.65-56.7-37.15c-5.06-4.76-10.48-9.41-14.84-14.83c-0.85-1.05-2.24-1.53-3.46-0.75
		C369.14,259.22,368.59,260.95,369.44,262.01z"/>
</g>
<g id="Layer_4" display="none">
	<path display="inline" d="M187.39,260.97c-3.89,17.75-10.23,34.91-18.88,50.88c-2.47,4.56-5.13,9.01-7.95,13.36
		c-1.76,2.71,2.57,5.22,4.32,2.52c10.07-15.53,17.96-32.48,23.35-50.18c1.53-5.03,2.86-10.12,3.98-15.26
		C192.9,259.17,188.08,257.83,187.39,260.97z"/>
	<path display="inline" d="M243.6,259.68v70.38c0,3.22,5,3.22,5,0v-70.38C248.6,256.47,243.6,256.46,243.6,259.68z"/>
	<path display="inline" d="M328.76,322.48c-8.49-15.15-17.08-30.47-22.25-47.13c-1.46-4.72-2.63-9.53-3.46-14.41
		c-0.23-1.33-1.87-2.08-3.08-1.75c-1.41,0.39-1.97,1.74-1.75,3.08c2.96,17.55,10.52,33.88,18.88,49.45
		c2.39,4.46,4.86,8.87,7.33,13.28C326.02,327.81,330.34,325.3,328.76,322.48z"/>
</g>
</svg>
